<?xml version="1.0" encoding="iso-8859-1"?>
<!-- Generator: Adobe Illustrator 19.0.0, SVG Export Plug-In . SVG Version: 6.00 Build 0)  -->
<svg version="1.1" id="Capa_1" xmlns="http://www.w3.org/2000/svg" xmlns:xlink="http://www.w3.org/1999/xlink" x="0px" y="0px"
	 viewBox="0 0 480.009 480.009" style="enable-background:new 0 0 480.009 480.009;" xml:space="preserve">
<g>
	<rect x="264.003" y="352.005" style="fill:#59B9B9;" width="48" height="40"/>
	<path style="fill:#59B9B9;" d="M391.635,312.765c-44.496-22.248-74.6-65.024-80.528-114.416l-9.296-77.464
		c-3.496-29.136-16.84-56.608-37.592-77.36l-24.216-24.208l-24.208,24.208c-20.752,20.752-34.104,48.232-37.592,77.36l-9.296,77.464
		c-5.928,49.392-36.032,92.168-80.528,114.416c-27.224,13.616-49.032,36.432-61.392,64.248l-6.672,14.992h131.688v-48
		c0-4.416,3.576-8,8-8h56v-24c0-13.232,10.768-24,24-24s24,10.768,24,24v24h56c4.424,0,8,3.584,8,8v48h131.688l-6.664-14.992
		C440.667,349.197,418.859,326.381,391.635,312.765z M248.003,256.005h-16v-16h16V256.005z M248.003,224.005h-16v-16h16V224.005z
		 M248.003,192.005h-16v-16h16V192.005z M264.003,144.005c0-13.232-10.768-24-24-24s-24,10.768-24,24h-16c0-22.056,17.944-40,40-40
		s40,17.944,40,40H264.003z"/>
</g>
<path style="fill:#BA240F;" d="M296.003,424.005h-16v-16h-16v12.224c0,17.648,9.096,33.64,24,42.648c14.904-9.008,24-25,24-42.648
	v-12.224h-16V424.005z"/>
<path style="fill:#59B9B9;" d="M240.003,304.005c-4.416,0-8,3.592-8,8v32v48h16v-48v-32
	C248.003,307.597,244.419,304.005,240.003,304.005z"/>
<path style="fill:#BA240F;" d="M200.003,424.005h-16v-16h-16v12.224c0,17.648,9.096,33.64,24,42.648c14.904-9.008,24-25,24-42.648
	v-12.224h-16V424.005z"/>
<g>
	<path style="fill:#E88838;" d="M392.003,294.789v-132.84c0-16.896-5.632-32.928-16-45.952c-10.368,13.024-16,29.056-16,45.952
		v107.096C369.139,279.133,379.907,287.837,392.003,294.789z"/>
	<path style="fill:#E88838;" d="M120.003,269.037V161.949c0-16.896-5.632-32.928-16-45.952c-10.368,13.024-16,29.056-16,45.952
		v132.848C100.099,287.837,110.867,279.133,120.003,269.037z"/>
</g>
<rect x="168.003" y="352.005" style="fill:#59B9B9;" width="48" height="40"/>
<g>
	<path style="fill:#0D0A3F;" d="M479.315,396.757l-11.664-26.24c-12.44-27.976-33.432-51.384-59.648-66.944V161.949
		c0-24.024-9.36-46.608-26.344-63.6c-3.128-3.128-8.184-3.128-11.312,0c-16.984,16.992-26.344,39.576-26.344,63.6v85.136
		c-8.92-15.304-14.824-32.448-17.008-50.64l-9.296-77.464c-3.92-32.672-18.896-63.488-42.168-86.768L245.667,2.349
		c-3.128-3.128-8.184-3.128-11.312,0l-29.872,29.864c-23.272,23.28-38.248,54.096-42.168,86.768l-9.296,77.464
		c-2.184,18.184-8.088,35.336-17.008,50.64v-85.136c0-24.024-9.36-46.608-26.344-63.6c-3.128-3.128-8.184-3.128-11.312,0
		c-16.992,16.992-26.352,39.576-26.352,63.6v141.624c-26.216,15.56-47.208,38.96-59.648,66.944l-11.664,26.24
		c-1.104,2.48-0.872,5.336,0.6,7.608s4,3.64,6.712,3.64h144v12.224c0,25.12,13.952,47.696,36.424,58.928
		c1.12,0.568,2.352,0.848,3.576,0.848s2.456-0.28,3.576-0.84c22.472-11.24,36.424-33.816,36.424-58.936v-12.224h16v12.224
		c0,25.12,13.952,47.696,36.424,58.928c1.12,0.568,2.352,0.848,3.576,0.848s2.456-0.28,3.576-0.84
		c22.472-11.24,36.424-33.816,36.424-58.936v-12.224h144c2.712,0,5.232-1.368,6.712-3.64S480.419,399.229,479.315,396.757z
		 M360.003,161.949c0-16.896,5.632-32.928,16-45.952c10.368,13.024,16,29.056,16,45.952v132.848
		c-12.096-6.952-22.864-15.656-32-25.752V161.949z M104.003,115.997c10.368,13.024,16,29.056,16,45.952v107.096
		c-9.136,10.096-19.904,18.8-32,25.752V161.949C88.003,145.053,93.635,129.013,104.003,115.997z M216.003,392.005h-48v-40h48
		V392.005z M192.003,462.877c-14.904-9.008-24-25-24-42.648v-12.224h16v16h16v-16h16v12.224
		C216.003,437.877,206.907,453.869,192.003,462.877z M232.003,344.005v-32c0-4.408,3.584-8,8-8c4.416,0,8,3.592,8,8v32v48h-16
		V344.005z M312.003,392.005h-48v-40h48V392.005z M288.003,462.877c-14.904-9.008-24-25-24-42.648v-12.224h16v16h16v-16h16v12.224
		C312.003,437.877,302.907,453.869,288.003,462.877z M328.003,392.005v-48c0-4.416-3.576-8-8-8h-56v-24c0-13.232-10.768-24-24-24
		s-24,10.768-24,24v24h-56c-4.424,0-8,3.584-8,8v48H20.315l6.664-14.992c12.36-27.816,34.168-50.632,61.392-64.248
		c44.496-22.248,74.6-65.024,80.528-114.416l9.296-77.464c3.496-29.136,16.84-56.608,37.592-77.36l24.216-24.208l24.208,24.208
		c20.752,20.752,34.104,48.232,37.592,77.36l9.296,77.464c5.928,49.392,36.032,92.168,80.528,114.416
		c27.224,13.616,49.032,36.432,61.392,64.248l6.672,14.992H328.003z"/>
	<path style="fill:#0D0A3F;" d="M240.003,104.005c-22.056,0-40,17.944-40,40h16c0-13.232,10.768-24,24-24s24,10.768,24,24h16
		C280.003,121.949,262.059,104.005,240.003,104.005z"/>
	<rect x="232.003" y="176.005" style="fill:#0D0A3F;" width="16" height="16"/>
	<rect x="232.003" y="208.005" style="fill:#0D0A3F;" width="16" height="16"/>
	<rect x="232.003" y="240.005" style="fill:#0D0A3F;" width="16" height="16"/>
</g>
<g>
</g>
<g>
</g>
<g>
</g>
<g>
</g>
<g>
</g>
<g>
</g>
<g>
</g>
<g>
</g>
<g>
</g>
<g>
</g>
<g>
</g>
<g>
</g>
<g>
</g>
<g>
</g>
<g>
</g>
</svg>
